<mxfile host="app.diagrams.net" modified="2023-12-07T07:28:11.218Z" agent="Mozilla/5.0 (Macintosh; Intel Mac OS X 10_15_7) AppleWebKit/537.36 (KHTML, like Gecko) Chrome/119.0.0.0 Safari/537.36" version="21.7.1" etag="5Ow44g4bOEcZaf7UN3Xk" type="github">
  <diagram name="Page-1" id="FnpSUt4HrYMeW5YudDth">
    <mxGraphModel>
      <root>
        <mxCell id="0" />
        <mxCell id="1" parent="0" />
      </root>
    </mxGraphModel>
  </diagram>
</mxfile>
